<svg xmlns="http://www.w3.org/2000/svg" viewBox="0 0 375.72 257.66"><defs><style>.cls-1{fill:#2dde00;}.cls-2{fill:#1f9c00;}.cls-3{fill:#135e00;}.cls-4{fill:#dbca9c;}</style></defs><g id="Layer_2" data-name="Layer 2"><g id="ëÎÓÈ_1" data-name="ëÎÓÈ 1"><rect x="369.03" y="58.66" width="6.68" height="7.43"/><rect x="361.61" y="58.66" width="7.43" height="7.43"/><rect x="354.18" y="66.08" width="7.43" height="7.43"/><rect x="354.18" y="58.66" width="7.43" height="7.43"/><rect x="346.76" y="73.51" width="7.43" height="7.43"/><rect x="346.76" y="66.08" width="7.43" height="7.43"/><rect x="339.33" y="80.94" width="7.43" height="7.43"/><rect x="339.33" y="73.51" width="7.43" height="7.43"/><rect x="339.33" y="66.08" width="7.43" height="7.43"/><rect x="331.91" y="88.36" width="7.43" height="7.43"/><rect x="331.91" y="80.94" width="7.43" height="7.43"/><rect class="cls-1" x="331.91" y="73.51" width="7.43" height="7.43"/><rect x="331.91" y="66.08" width="7.43" height="7.43"/><rect x="324.48" y="88.36" width="7.43" height="7.43"/><rect class="cls-2" x="324.48" y="80.94" width="7.43" height="7.43"/><rect x="324.48" y="73.51" width="7.43" height="7.43"/><rect x="317.06" y="95.79" width="7.43" height="7.43"/><rect class="cls-2" x="317.06" y="88.36" width="7.43" height="7.43"/><rect class="cls-1" x="317.06" y="80.94" width="7.43" height="7.43"/><rect x="317.06" y="73.51" width="7.43" height="7.43"/><rect x="309.63" y="103.21" width="7.43" height="7.43"/><rect class="cls-3" x="309.63" y="95.79" width="7.43" height="7.43"/><rect x="309.63" y="88.36" width="7.43" height="7.43"/><rect x="309.63" y="80.94" width="7.43" height="7.43"/><rect x="302.21" y="110.64" width="7.43" height="7.43"/><rect class="cls-3" x="302.21" y="103.21" width="7.43" height="7.43"/><rect class="cls-2" x="302.21" y="95.79" width="7.43" height="7.43"/><rect class="cls-1" x="302.21" y="88.36" width="7.43" height="7.43"/><rect x="302.21" y="80.94" width="7.43" height="7.43"/><rect x="294.78" y="110.64" width="7.43" height="7.43"/><rect class="cls-2" x="294.78" y="103.21" width="7.43" height="7.43"/><rect class="cls-2" x="294.78" y="95.79" width="7.43" height="7.43"/><rect class="cls-1" x="294.78" y="88.36" width="7.43" height="7.43"/><rect x="294.78" y="80.94" width="7.43" height="7.43"/><rect x="287.36" y="118.06" width="7.43" height="7.43"/><rect class="cls-3" x="287.36" y="110.64" width="7.43" height="7.43"/><rect class="cls-2" x="287.36" y="103.21" width="7.43" height="7.43"/><rect class="cls-1" x="287.36" y="95.79" width="7.43" height="7.43"/><rect class="cls-1" x="287.36" y="88.36" width="7.43" height="7.43"/><rect x="287.36" y="80.94" width="7.43" height="7.43"/><rect x="279.93" y="125.49" width="7.43" height="7.43"/><rect class="cls-3" x="279.93" y="118.06" width="7.43" height="7.43"/><rect class="cls-2" x="279.93" y="110.64" width="7.43" height="7.43"/><rect class="cls-2" x="279.93" y="103.21" width="7.43" height="7.43"/><rect x="279.93" y="95.79" width="7.43" height="7.43"/><rect x="279.93" y="88.36" width="7.43" height="7.43"/><rect x="272.51" y="250.23" width="7.43" height="7.43"/><rect x="272.51" y="243.55" width="7.43" height="6.68"/><rect x="272.51" y="236.12" width="7.43" height="7.43"/><rect x="272.51" y="228.7" width="7.43" height="7.43"/><rect x="272.51" y="221.27" width="7.43" height="7.43"/><rect x="272.51" y="125.49" width="7.43" height="7.43"/><rect class="cls-3" x="272.51" y="118.06" width="7.43" height="7.43"/><rect class="cls-2" x="272.51" y="110.64" width="7.43" height="7.43"/><rect class="cls-1" x="272.51" y="103.21" width="7.43" height="7.43"/><rect class="cls-1" x="272.51" y="95.79" width="7.43" height="7.43"/><rect x="272.51" y="88.36" width="7.43" height="7.43"/><rect x="265.08" y="250.23" width="7.43" height="7.43"/><rect class="cls-3" x="265.08" y="243.55" width="7.43" height="6.68"/><rect class="cls-2" x="265.08" y="236.12" width="7.43" height="7.43"/><rect class="cls-2" x="265.08" y="228.7" width="7.43" height="7.43"/><rect x="265.08" y="221.27" width="7.43" height="7.43"/><rect x="265.08" y="213.85" width="7.43" height="7.43"/><rect x="265.08" y="206.42" width="7.43" height="7.43"/><rect x="265.08" y="199" width="7.43" height="7.43"/><rect x="265.08" y="191.57" width="7.43" height="7.43"/><rect x="265.08" y="184.15" width="7.43" height="7.43"/><rect x="265.08" y="139.59" width="7.43" height="7.43"/><rect x="265.08" y="132.91" width="7.43" height="6.68"/><rect class="cls-3" x="265.08" y="125.49" width="7.43" height="7.43"/><rect class="cls-3" x="265.08" y="118.06" width="7.43" height="7.43"/><rect class="cls-2" x="265.08" y="110.64" width="7.43" height="7.43"/><rect class="cls-1" x="265.08" y="103.21" width="7.43" height="7.43"/><rect class="cls-1" x="265.08" y="95.79" width="7.43" height="7.43"/><rect x="265.08" y="88.36" width="7.43" height="7.43"/><rect x="258.4" y="250.23" width="6.68" height="7.43"/><rect class="cls-2" x="258.4" y="243.55" width="6.68" height="6.68"/><rect class="cls-2" x="258.4" y="236.12" width="6.68" height="7.43"/><rect class="cls-2" x="258.4" y="228.7" width="6.68" height="7.43"/><rect class="cls-2" x="258.4" y="221.27" width="6.68" height="7.43"/><rect class="cls-2" x="258.4" y="213.85" width="6.68" height="7.43"/><rect class="cls-2" x="258.4" y="206.42" width="6.68" height="7.43"/><rect class="cls-2" x="258.4" y="199" width="6.68" height="7.43"/><rect class="cls-2" x="258.4" y="191.57" width="6.68" height="7.43"/><rect class="cls-2" x="258.4" y="184.15" width="6.68" height="7.43"/><rect x="258.4" y="176.72" width="6.68" height="7.43"/><rect x="258.4" y="147.02" width="6.68" height="7.43"/><rect class="cls-4" x="258.4" y="139.59" width="6.68" height="7.43"/><rect x="258.4" y="132.91" width="6.68" height="6.68"/><rect class="cls-2" x="258.4" y="125.49" width="6.68" height="7.43"/><rect class="cls-2" x="258.4" y="118.06" width="6.68" height="7.43"/><rect class="cls-1" x="258.4" y="110.64" width="6.68" height="7.43"/><rect class="cls-1" x="258.4" y="103.21" width="6.68" height="7.43"/><rect class="cls-1" x="258.4" y="95.79" width="6.68" height="7.43"/><rect x="258.4" y="88.36" width="6.68" height="7.43"/><rect x="250.97" y="250.23" width="7.43" height="7.43"/><rect x="250.97" y="243.55" width="7.43" height="6.68"/><rect x="250.97" y="236.12" width="7.43" height="7.43"/><rect x="250.97" y="228.7" width="7.43" height="7.43"/><rect x="250.97" y="221.27" width="7.43" height="7.43"/><rect class="cls-2" x="250.97" y="213.85" width="7.43" height="7.43"/><rect class="cls-2" x="250.97" y="206.42" width="7.43" height="7.43"/><rect class="cls-2" x="250.97" y="199" width="7.43" height="7.43"/><rect class="cls-2" x="250.97" y="191.57" width="7.43" height="7.43"/><rect class="cls-2" x="250.97" y="184.15" width="7.43" height="7.43"/><rect x="250.97" y="176.72" width="7.43" height="7.43"/><rect x="250.97" y="161.87" width="7.43" height="7.43"/><rect x="250.97" y="154.44" width="7.43" height="7.43"/><rect class="cls-4" x="250.97" y="147.02" width="7.43" height="7.43"/><rect class="cls-4" x="250.97" y="139.59" width="7.43" height="7.43"/><rect x="250.97" y="132.91" width="7.43" height="6.68"/><rect class="cls-2" x="250.97" y="125.49" width="7.43" height="7.43"/><rect class="cls-1" x="250.97" y="118.06" width="7.43" height="7.43"/><rect class="cls-1" x="250.97" y="110.64" width="7.43" height="7.43"/><rect x="250.97" y="103.21" width="7.43" height="7.43"/><rect x="250.97" y="95.79" width="7.43" height="7.43"/><rect x="250.97" y="88.36" width="7.43" height="7.43"/><rect x="243.55" y="250.23" width="7.43" height="7.43"/><rect x="243.55" y="243.55" width="7.43" height="6.68"/><rect x="243.55" y="221.27" width="7.43" height="7.43"/><rect x="243.55" y="213.85" width="7.43" height="7.43"/><rect class="cls-2" x="243.55" y="206.42" width="7.43" height="7.43"/><rect class="cls-3" x="243.55" y="199" width="7.43" height="7.43"/><rect class="cls-3" x="243.55" y="191.57" width="7.43" height="7.43"/><rect class="cls-3" x="243.55" y="184.15" width="7.43" height="7.43"/><rect class="cls-3" x="243.55" y="176.72" width="7.43" height="7.43"/><rect x="243.55" y="169.3" width="7.43" height="7.43"/><rect class="cls-4" x="243.55" y="161.87" width="7.43" height="7.43"/><rect class="cls-4" x="243.55" y="154.44" width="7.43" height="7.43"/><rect class="cls-4" x="243.55" y="147.02" width="7.43" height="7.43"/><rect class="cls-4" x="243.55" y="139.59" width="7.43" height="7.43"/><rect x="243.55" y="132.91" width="7.43" height="6.68"/><rect class="cls-2" x="243.55" y="125.49" width="7.43" height="7.43"/><rect x="243.55" y="118.06" width="7.43" height="7.43"/><rect x="243.55" y="110.64" width="7.43" height="7.43"/><rect x="243.55" y="103.21" width="7.43" height="7.43"/><rect class="cls-4" x="243.55" y="95.79" width="7.43" height="7.43"/><rect x="243.55" y="88.36" width="7.43" height="7.43"/><rect x="236.12" y="213.85" width="7.43" height="7.43"/><rect x="236.12" y="206.42" width="7.43" height="7.43"/><rect class="cls-3" x="236.12" y="199" width="7.43" height="7.43"/><rect class="cls-3" x="236.12" y="191.57" width="7.43" height="7.43"/><rect class="cls-3" x="236.12" y="184.15" width="7.43" height="7.43"/><rect class="cls-3" x="236.12" y="176.72" width="7.43" height="7.43"/><rect x="236.12" y="169.3" width="7.43" height="7.43"/><rect class="cls-4" x="236.12" y="161.87" width="7.43" height="7.43"/><rect class="cls-4" x="236.12" y="154.44" width="7.43" height="7.43"/><rect class="cls-4" x="236.12" y="147.02" width="7.43" height="7.43"/><rect x="236.12" y="139.59" width="7.43" height="7.43"/><rect class="cls-2" x="236.12" y="132.91" width="7.43" height="6.68"/><rect x="236.12" y="125.49" width="7.43" height="7.43"/><rect x="236.12" y="118.06" width="7.43" height="7.43"/><rect class="cls-4" x="236.12" y="110.64" width="7.43" height="7.43"/><rect class="cls-4" x="236.12" y="103.21" width="7.43" height="7.43"/><rect x="236.12" y="95.79" width="7.43" height="7.43"/><rect x="228.7" y="199" width="7.43" height="7.43"/><rect x="228.7" y="191.57" width="7.43" height="7.43"/><rect class="cls-3" x="228.7" y="184.15" width="7.43" height="7.43"/><rect class="cls-3" x="228.7" y="176.72" width="7.43" height="7.43"/><rect x="228.7" y="169.3" width="7.43" height="7.43"/><rect class="cls-4" x="228.7" y="161.87" width="7.43" height="7.43"/><rect class="cls-4" x="228.7" y="154.44" width="7.43" height="7.43"/><rect x="228.7" y="147.02" width="7.43" height="7.43"/><rect class="cls-2" x="228.7" y="139.59" width="7.43" height="7.43"/><rect class="cls-2" x="228.7" y="132.91" width="7.43" height="6.68"/><rect x="228.7" y="125.49" width="7.43" height="7.43"/><rect x="228.7" y="118.06" width="7.43" height="7.43"/><rect x="228.7" y="110.64" width="7.43" height="7.43"/><rect x="228.7" y="103.21" width="7.43" height="7.43"/><rect x="228.7" y="95.79" width="7.43" height="7.43"/><rect x="221.27" y="191.57" width="7.43" height="7.43"/><rect class="cls-3" x="221.27" y="184.15" width="7.43" height="7.43"/><rect class="cls-3" x="221.27" y="176.72" width="7.43" height="7.43"/><rect x="221.27" y="169.3" width="7.43" height="7.43"/><rect class="cls-4" x="221.27" y="161.87" width="7.43" height="7.43"/><rect x="221.27" y="154.44" width="7.43" height="7.43"/><rect class="cls-2" x="221.27" y="147.02" width="7.43" height="7.43"/><rect class="cls-2" x="221.27" y="139.59" width="7.43" height="7.43"/><rect class="cls-2" x="221.27" y="132.91" width="7.43" height="6.68"/><rect class="cls-2" x="221.27" y="125.49" width="7.43" height="7.43"/><rect class="cls-1" x="221.27" y="118.06" width="7.43" height="7.43"/><rect class="cls-1" x="221.27" y="110.64" width="7.43" height="7.43"/><rect class="cls-1" x="221.27" y="103.21" width="7.43" height="7.43"/><rect x="221.27" y="95.79" width="7.43" height="7.43"/><rect x="213.85" y="221.27" width="7.43" height="7.43"/><rect x="213.85" y="213.85" width="7.43" height="7.43"/><rect x="213.85" y="206.42" width="7.43" height="7.43"/><rect x="213.85" y="199" width="7.43" height="7.43"/><rect x="213.85" y="191.57" width="7.43" height="7.43"/><rect x="213.85" y="184.15" width="7.43" height="7.43"/><rect class="cls-3" x="213.85" y="176.72" width="7.43" height="7.43"/><rect x="213.85" y="169.3" width="7.43" height="7.43"/><rect class="cls-4" x="213.85" y="161.87" width="7.43" height="7.43"/><rect x="213.85" y="154.44" width="7.43" height="7.43"/><rect class="cls-2" x="213.85" y="147.02" width="7.43" height="7.43"/><rect class="cls-2" x="213.85" y="139.59" width="7.43" height="7.43"/><rect class="cls-2" x="213.85" y="132.91" width="7.43" height="6.68"/><rect class="cls-1" x="213.85" y="125.49" width="7.43" height="7.43"/><rect class="cls-1" x="213.85" y="118.06" width="7.43" height="7.43"/><rect class="cls-1" x="213.85" y="110.64" width="7.43" height="7.43"/><rect class="cls-1" x="213.85" y="103.21" width="7.43" height="7.43"/><rect x="213.85" y="95.79" width="7.43" height="7.43"/><rect x="206.42" y="228.7" width="7.43" height="7.43"/><rect class="cls-3" x="206.42" y="221.27" width="7.43" height="7.43"/><rect class="cls-3" x="206.42" y="213.85" width="7.43" height="7.43"/><rect class="cls-3" x="206.42" y="206.42" width="7.43" height="7.43"/><rect class="cls-3" x="206.42" y="199" width="7.43" height="7.43"/><rect class="cls-3" x="206.42" y="191.57" width="7.43" height="7.43"/><rect x="206.42" y="184.15" width="7.43" height="7.43"/><rect x="206.42" y="176.72" width="7.43" height="7.43"/><rect x="206.42" y="169.3" width="7.43" height="7.43"/><rect x="206.42" y="161.87" width="7.43" height="7.43"/><rect x="206.42" y="154.44" width="7.43" height="7.43"/><rect x="206.42" y="147.02" width="7.43" height="7.43"/><rect class="cls-2" x="206.42" y="139.59" width="7.43" height="7.43"/><rect class="cls-2" x="206.42" y="132.91" width="7.43" height="6.68"/><rect class="cls-1" x="206.42" y="125.49" width="7.43" height="7.43"/><rect class="cls-1" x="206.42" y="118.06" width="7.43" height="7.43"/><rect class="cls-1" x="206.42" y="110.64" width="7.43" height="7.43"/><rect x="206.42" y="103.21" width="7.43" height="7.43"/><rect x="206.42" y="95.79" width="7.43" height="7.43"/><rect x="199" y="236.12" width="7.43" height="7.43"/><rect class="cls-3" x="199" y="228.7" width="7.43" height="7.43"/><rect class="cls-3" x="199" y="221.27" width="7.43" height="7.43"/><rect class="cls-2" x="199" y="213.85" width="7.43" height="7.43"/><rect class="cls-2" x="199" y="206.42" width="7.43" height="7.43"/><rect class="cls-2" x="199" y="199" width="7.43" height="7.43"/><rect class="cls-2" x="199" y="191.57" width="7.43" height="7.43"/><rect class="cls-2" x="199" y="184.15" width="7.43" height="7.43"/><rect class="cls-2" x="199" y="176.72" width="7.43" height="7.43"/><rect class="cls-2" x="199" y="169.3" width="7.43" height="7.43"/><rect class="cls-2" x="199" y="161.87" width="7.43" height="7.43"/><rect class="cls-2" x="199" y="154.44" width="7.43" height="7.43"/><rect class="cls-2" x="199" y="147.02" width="7.43" height="7.43"/><rect class="cls-2" x="199" y="139.59" width="7.43" height="7.43"/><rect class="cls-2" x="199" y="132.91" width="7.43" height="6.68"/><rect class="cls-1" x="199" y="125.49" width="7.43" height="7.43"/><rect class="cls-1" x="199" y="118.06" width="7.43" height="7.43"/><rect x="199" y="110.64" width="7.43" height="7.43"/><rect x="199" y="103.21" width="7.43" height="7.43"/><rect x="199" y="95.79" width="7.43" height="7.43"/><rect x="191.57" y="243.55" width="7.43" height="6.68"/><rect class="cls-2" x="191.57" y="236.12" width="7.43" height="7.43"/><rect class="cls-2" x="191.57" y="228.7" width="7.43" height="7.43"/><rect class="cls-2" x="191.57" y="221.27" width="7.43" height="7.43"/><rect class="cls-2" x="191.57" y="213.85" width="7.43" height="7.43"/><rect class="cls-2" x="191.57" y="206.42" width="7.43" height="7.43"/><rect class="cls-2" x="191.57" y="199" width="7.43" height="7.43"/><rect class="cls-2" x="191.57" y="191.57" width="7.43" height="7.43"/><rect class="cls-2" x="191.57" y="184.15" width="7.43" height="7.43"/><rect class="cls-2" x="191.57" y="176.72" width="7.43" height="7.43"/><rect class="cls-2" x="191.57" y="169.3" width="7.43" height="7.43"/><rect class="cls-2" x="191.57" y="161.87" width="7.43" height="7.43"/><rect class="cls-2" x="191.57" y="154.44" width="7.43" height="7.43"/><rect class="cls-2" x="191.57" y="147.02" width="7.43" height="7.43"/><rect class="cls-2" x="191.57" y="139.59" width="7.43" height="7.43"/><rect class="cls-2" x="191.57" y="132.91" width="7.43" height="6.68"/><rect class="cls-1" x="191.57" y="125.49" width="7.43" height="7.43"/><rect x="191.57" y="118.06" width="7.43" height="7.43"/><rect x="191.57" y="110.64" width="7.43" height="7.43"/><rect class="cls-4" x="191.57" y="103.21" width="7.43" height="7.43"/><rect class="cls-4" x="191.57" y="95.79" width="7.43" height="7.43"/><rect x="191.57" y="88.36" width="7.43" height="7.43"/><rect x="184.15" y="250.23" width="7.43" height="7.43"/><rect class="cls-3" x="184.15" y="243.55" width="7.43" height="6.68"/><rect x="184.15" y="236.12" width="7.43" height="7.43"/><rect x="184.15" y="228.7" width="7.43" height="7.43"/><rect x="184.15" y="221.27" width="7.43" height="7.43"/><rect x="184.15" y="213.85" width="7.43" height="7.43"/><rect x="184.15" y="206.42" width="7.43" height="7.43"/><rect x="184.15" y="199" width="7.43" height="7.43"/><rect class="cls-2" x="184.15" y="191.57" width="7.43" height="7.43"/><rect class="cls-2" x="184.15" y="184.15" width="7.43" height="7.43"/><rect class="cls-2" x="184.15" y="176.72" width="7.43" height="7.43"/><rect class="cls-2" x="184.15" y="169.3" width="7.43" height="7.43"/><rect class="cls-2" x="184.15" y="161.87" width="7.43" height="7.43"/><rect class="cls-2" x="184.15" y="154.44" width="7.43" height="7.43"/><rect class="cls-2" x="184.15" y="147.02" width="7.43" height="7.43"/><rect class="cls-2" x="184.15" y="139.59" width="7.43" height="7.43"/><rect class="cls-2" x="184.15" y="132.91" width="7.43" height="6.68"/><rect x="184.15" y="125.49" width="7.43" height="7.43"/><rect x="184.15" y="118.06" width="7.43" height="7.43"/><rect class="cls-4" x="184.15" y="110.64" width="7.43" height="7.43"/><rect class="cls-4" x="184.15" y="103.21" width="7.43" height="7.43"/><rect class="cls-4" x="184.15" y="95.79" width="7.43" height="7.43"/><rect x="184.15" y="88.36" width="7.43" height="7.43"/><rect x="176.72" y="250.23" width="7.43" height="7.43"/><rect class="cls-3" x="176.72" y="243.55" width="7.43" height="6.68"/><rect x="176.72" y="236.12" width="7.43" height="7.43"/><rect x="176.72" y="191.57" width="7.43" height="7.43"/><rect class="cls-1" x="176.72" y="184.15" width="7.43" height="7.43"/><rect class="cls-2" x="176.72" y="176.72" width="7.43" height="7.43"/><rect class="cls-2" x="176.72" y="169.3" width="7.43" height="7.43"/><rect class="cls-2" x="176.72" y="161.87" width="7.43" height="7.43"/><rect class="cls-2" x="176.72" y="154.44" width="7.43" height="7.43"/><rect class="cls-2" x="176.72" y="147.02" width="7.43" height="7.43"/><rect class="cls-2" x="176.72" y="139.59" width="7.43" height="7.43"/><rect x="176.72" y="132.91" width="7.43" height="6.68"/><rect class="cls-4" x="176.72" y="125.49" width="7.43" height="7.43"/><rect class="cls-4" x="176.72" y="118.06" width="7.43" height="7.43"/><rect class="cls-4" x="176.72" y="110.64" width="7.43" height="7.43"/><rect class="cls-4" x="176.72" y="103.21" width="7.43" height="7.43"/><rect x="176.72" y="95.79" width="7.43" height="7.43"/><rect x="176.72" y="88.36" width="7.43" height="7.43"/><rect x="169.3" y="250.23" width="7.43" height="7.43"/><rect class="cls-3" x="169.3" y="243.55" width="7.43" height="6.68"/><rect class="cls-2" x="169.3" y="236.12" width="7.43" height="7.43"/><rect x="169.3" y="228.7" width="7.43" height="7.43"/><rect x="169.3" y="191.57" width="7.43" height="7.43"/><rect class="cls-1" x="169.3" y="184.15" width="7.43" height="7.43"/><rect class="cls-2" x="169.3" y="176.72" width="7.43" height="7.43"/><rect class="cls-2" x="169.3" y="169.3" width="7.43" height="7.43"/><rect class="cls-2" x="169.3" y="161.87" width="7.43" height="7.43"/><rect class="cls-2" x="169.3" y="154.44" width="7.43" height="7.43"/><rect class="cls-2" x="169.3" y="147.02" width="7.43" height="7.43"/><rect x="169.3" y="139.59" width="7.43" height="7.43"/><rect x="169.3" y="132.91" width="7.43" height="6.68"/><rect x="169.3" y="125.49" width="7.43" height="7.43"/><rect x="169.3" y="118.06" width="7.43" height="7.43"/><rect x="169.3" y="110.64" width="7.43" height="7.43"/><rect x="169.3" y="103.21" width="7.43" height="7.43"/><rect class="cls-1" x="169.3" y="95.79" width="7.43" height="7.43"/><rect x="169.3" y="88.36" width="7.43" height="7.43"/><rect x="169.3" y="80.94" width="7.43" height="7.43"/><rect x="161.87" y="250.23" width="7.43" height="7.43"/><rect class="cls-3" x="161.87" y="243.55" width="7.43" height="6.68"/><rect class="cls-2" x="161.87" y="236.12" width="7.43" height="7.43"/><rect x="161.87" y="228.7" width="7.43" height="7.43"/><rect x="161.87" y="191.57" width="7.43" height="7.43"/><rect x="161.87" y="184.15" width="7.43" height="7.43"/><rect class="cls-1" x="161.87" y="176.72" width="7.43" height="7.43"/><rect class="cls-1" x="161.87" y="169.3" width="7.43" height="7.43"/><rect class="cls-2" x="161.87" y="161.87" width="7.43" height="7.43"/><rect class="cls-2" x="161.87" y="154.44" width="7.43" height="7.43"/><rect class="cls-2" x="161.87" y="147.02" width="7.43" height="7.43"/><rect class="cls-2" x="161.87" y="139.59" width="7.43" height="7.43"/><rect class="cls-2" x="161.87" y="132.91" width="7.43" height="6.68"/><rect class="cls-2" x="161.87" y="125.49" width="7.43" height="7.43"/><rect class="cls-2" x="161.87" y="118.06" width="7.43" height="7.43"/><rect class="cls-1" x="161.87" y="110.64" width="7.43" height="7.43"/><rect class="cls-1" x="161.87" y="103.21" width="7.43" height="7.43"/><rect class="cls-1" x="161.87" y="95.79" width="7.43" height="7.43"/><rect class="cls-1" x="161.87" y="88.36" width="7.43" height="7.43"/><rect x="161.87" y="80.94" width="7.43" height="7.43"/><rect x="154.45" y="250.23" width="7.43" height="7.43"/><rect class="cls-3" x="154.45" y="243.55" width="7.43" height="6.68"/><rect x="154.45" y="236.12" width="7.43" height="7.43"/><rect x="154.45" y="184.15" width="7.43" height="7.43"/><rect x="154.45" y="176.72" width="7.43" height="7.43"/><rect x="154.45" y="169.3" width="7.43" height="7.43"/><rect class="cls-1" x="154.45" y="161.87" width="7.43" height="7.43"/><rect class="cls-1" x="154.45" y="154.44" width="7.43" height="7.43"/><rect class="cls-1" x="154.45" y="147.02" width="7.43" height="7.43"/><rect x="154.45" y="139.59" width="7.43" height="7.43"/><rect class="cls-2" x="154.45" y="132.91" width="7.43" height="6.68"/><rect class="cls-2" x="154.45" y="125.49" width="7.43" height="7.43"/><rect class="cls-2" x="154.45" y="118.06" width="7.43" height="7.43"/><rect class="cls-2" x="154.45" y="110.64" width="7.43" height="7.43"/><rect class="cls-1" x="154.45" y="103.21" width="7.43" height="7.43"/><rect class="cls-1" x="154.45" y="95.79" width="7.43" height="7.43"/><rect x="154.45" y="88.36" width="7.43" height="7.43"/><rect x="154.45" y="80.94" width="7.43" height="7.43"/><rect x="154.45" y="73.51" width="7.43" height="7.43"/><rect x="147.76" y="250.23" width="6.68" height="7.43"/><rect x="147.76" y="243.55" width="6.68" height="6.68"/><rect x="147.76" y="169.3" width="6.68" height="7.43"/><rect x="147.76" y="161.87" width="6.68" height="7.43"/><rect x="147.76" y="154.44" width="6.68" height="7.43"/><rect x="147.76" y="147.02" width="6.68" height="7.43"/><rect x="147.76" y="139.59" width="6.68" height="7.43"/><rect class="cls-2" x="147.76" y="132.91" width="6.68" height="6.68"/><rect class="cls-2" x="147.76" y="125.49" width="6.68" height="7.43"/><rect class="cls-2" x="147.76" y="118.06" width="6.68" height="7.43"/><rect class="cls-2" x="147.76" y="110.64" width="6.68" height="7.43"/><rect class="cls-1" x="147.76" y="103.21" width="6.68" height="7.43"/><rect class="cls-1" x="147.76" y="95.79" width="6.68" height="7.43"/><rect x="147.76" y="88.36" width="6.68" height="7.43"/><rect class="cls-4" x="147.76" y="80.94" width="6.68" height="7.43"/><rect x="147.76" y="73.51" width="6.68" height="7.43"/><rect x="140.34" y="250.23" width="7.43" height="7.43"/><rect x="140.34" y="243.55" width="7.43" height="6.68"/><rect x="140.34" y="169.3" width="7.43" height="7.43"/><rect x="140.34" y="161.87" width="7.43" height="7.43"/><rect class="cls-3" x="140.34" y="154.44" width="7.43" height="7.43"/><rect class="cls-3" x="140.34" y="147.02" width="7.43" height="7.43"/><rect class="cls-3" x="140.34" y="139.59" width="7.43" height="7.43"/><rect class="cls-2" x="140.34" y="132.91" width="7.43" height="6.68"/><rect class="cls-2" x="140.34" y="125.49" width="7.43" height="7.43"/><rect class="cls-2" x="140.34" y="118.06" width="7.43" height="7.43"/><rect class="cls-2" x="140.34" y="110.64" width="7.43" height="7.43"/><rect class="cls-2" x="140.34" y="103.21" width="7.43" height="7.43"/><rect x="140.34" y="95.79" width="7.43" height="7.43"/><rect x="140.34" y="88.36" width="7.43" height="7.43"/><rect class="cls-4" x="140.34" y="80.94" width="7.43" height="7.43"/><rect x="140.34" y="73.51" width="7.43" height="7.43"/><rect x="132.91" y="250.23" width="7.43" height="7.43"/><rect x="132.91" y="161.87" width="7.43" height="7.43"/><rect class="cls-3" x="132.91" y="154.44" width="7.43" height="7.43"/><rect class="cls-3" x="132.91" y="147.02" width="7.43" height="7.43"/><rect class="cls-2" x="132.91" y="139.59" width="7.43" height="7.43"/><rect class="cls-2" x="132.91" y="132.91" width="7.43" height="6.68"/><rect class="cls-2" x="132.91" y="125.49" width="7.43" height="7.43"/><rect class="cls-2" x="132.91" y="118.06" width="7.43" height="7.43"/><rect class="cls-2" x="132.91" y="110.64" width="7.43" height="7.43"/><rect x="132.91" y="103.21" width="7.43" height="7.43"/><rect x="132.91" y="95.79" width="7.43" height="7.43"/><rect class="cls-4" x="132.91" y="88.36" width="7.43" height="7.43"/><rect x="132.91" y="80.94" width="7.43" height="7.43"/><rect x="132.91" y="73.51" width="7.43" height="7.43"/><rect x="132.91" y="66.08" width="7.43" height="7.43"/><rect x="125.49" y="161.87" width="7.43" height="7.43"/><rect x="125.49" y="154.44" width="7.43" height="7.43"/><rect class="cls-3" x="125.49" y="147.02" width="7.43" height="7.43"/><rect class="cls-2" x="125.49" y="139.59" width="7.43" height="7.43"/><rect class="cls-2" x="125.49" y="132.91" width="7.43" height="6.68"/><rect class="cls-2" x="125.49" y="125.49" width="7.43" height="7.43"/><rect class="cls-2" x="125.49" y="118.06" width="7.43" height="7.43"/><rect class="cls-2" x="125.49" y="110.64" width="7.43" height="7.43"/><rect x="125.49" y="103.21" width="7.43" height="7.43"/><rect x="125.49" y="95.79" width="7.43" height="7.43"/><rect x="125.49" y="88.36" width="7.43" height="7.43"/><rect x="125.49" y="80.94" width="7.43" height="7.43"/><rect class="cls-1" x="125.49" y="73.51" width="7.43" height="7.43"/><rect class="cls-1" x="125.49" y="66.08" width="7.43" height="7.43"/><rect x="125.49" y="58.66" width="7.43" height="7.43"/><rect x="125.49" y="51.23" width="7.43" height="7.43"/><rect x="118.06" y="154.44" width="7.43" height="7.43"/><rect x="118.06" y="147.02" width="7.43" height="7.43"/><rect class="cls-3" x="118.06" y="139.59" width="7.43" height="7.43"/><rect class="cls-3" x="118.06" y="132.91" width="7.43" height="6.68"/><rect x="118.06" y="125.49" width="7.43" height="7.43"/><rect class="cls-2" x="118.06" y="118.06" width="7.43" height="7.43"/><rect class="cls-2" x="118.06" y="110.64" width="7.43" height="7.43"/><rect class="cls-2" x="118.06" y="103.21" width="7.43" height="7.43"/><rect class="cls-2" x="118.06" y="95.79" width="7.43" height="7.43"/><rect class="cls-2" x="118.06" y="88.36" width="7.43" height="7.43"/><rect class="cls-1" x="118.06" y="80.94" width="7.43" height="7.43"/><rect class="cls-1" x="118.06" y="73.51" width="7.43" height="7.43"/><rect class="cls-1" x="118.06" y="66.08" width="7.43" height="7.43"/><rect x="118.06" y="58.66" width="7.43" height="7.43"/><rect x="118.06" y="51.23" width="7.43" height="7.43"/><rect x="118.06" y="43.81" width="7.43" height="7.43"/><rect x="118.06" y="36.38" width="7.43" height="7.43"/><rect x="118.06" y="28.96" width="7.43" height="7.43"/><rect x="110.64" y="147.02" width="7.43" height="7.43"/><rect x="110.64" y="139.59" width="7.43" height="7.43"/><rect x="110.64" y="132.91" width="7.43" height="6.68"/><rect x="110.64" y="125.49" width="7.43" height="7.43"/><rect class="cls-2" x="110.64" y="118.06" width="7.43" height="7.43"/><rect class="cls-2" x="110.64" y="110.64" width="7.43" height="7.43"/><rect class="cls-2" x="110.64" y="103.21" width="7.43" height="7.43"/><rect class="cls-2" x="110.64" y="95.79" width="7.43" height="7.43"/><rect class="cls-2" x="110.64" y="88.36" width="7.43" height="7.43"/><rect class="cls-2" x="110.64" y="80.94" width="7.43" height="7.43"/><rect class="cls-1" x="110.64" y="73.51" width="7.43" height="7.43"/><rect class="cls-1" x="110.64" y="66.08" width="7.43" height="7.43"/><rect x="110.64" y="58.66" width="7.43" height="7.43"/><rect class="cls-4" x="110.64" y="51.23" width="7.43" height="7.43"/><rect x="110.64" y="43.81" width="7.43" height="7.43"/><rect class="cls-1" x="110.64" y="36.38" width="7.43" height="7.43"/><rect x="110.64" y="28.96" width="7.43" height="7.43"/><rect x="110.64" y="22.28" width="7.43" height="6.68"/><rect x="110.64" y="14.85" width="7.43" height="7.43"/><rect x="103.21" y="139.59" width="7.43" height="7.43"/><rect x="103.21" y="132.91" width="7.43" height="6.68"/><rect class="cls-3" x="103.21" y="125.49" width="7.43" height="7.43"/><rect class="cls-2" x="103.21" y="118.06" width="7.43" height="7.43"/><rect class="cls-2" x="103.21" y="110.64" width="7.43" height="7.43"/><rect class="cls-2" x="103.21" y="103.21" width="7.43" height="7.43"/><rect class="cls-2" x="103.21" y="95.79" width="7.43" height="7.43"/><rect class="cls-2" x="103.21" y="88.36" width="7.43" height="7.43"/><rect class="cls-2" x="103.21" y="80.94" width="7.43" height="7.43"/><rect class="cls-2" x="103.21" y="73.51" width="7.43" height="7.43"/><rect x="103.21" y="66.08" width="7.43" height="7.43"/><rect x="103.21" y="58.66" width="7.43" height="7.43"/><rect x="103.21" y="51.23" width="7.43" height="7.43"/><rect class="cls-2" x="103.21" y="43.81" width="7.43" height="7.43"/><rect class="cls-1" x="103.21" y="36.38" width="7.43" height="7.43"/><rect x="103.21" y="28.96" width="7.43" height="7.43"/><rect x="103.21" y="22.28" width="7.43" height="6.68"/><rect class="cls-1" x="103.21" y="14.85" width="7.43" height="7.43"/><rect x="103.21" y="7.43" width="7.43" height="7.43"/><rect x="95.79" y="139.59" width="7.43" height="7.43"/><rect x="95.79" y="132.91" width="7.43" height="6.68"/><rect class="cls-3" x="95.79" y="125.49" width="7.43" height="7.43"/><rect class="cls-3" x="95.79" y="118.06" width="7.43" height="7.43"/><rect class="cls-2" x="95.79" y="110.64" width="7.43" height="7.43"/><rect class="cls-2" x="95.79" y="103.21" width="7.43" height="7.43"/><rect class="cls-2" x="95.79" y="95.79" width="7.43" height="7.43"/><rect class="cls-2" x="95.79" y="88.36" width="7.43" height="7.43"/><rect class="cls-2" x="95.79" y="80.94" width="7.43" height="7.43"/><rect class="cls-2" x="95.79" y="73.51" width="7.43" height="7.43"/><rect x="95.79" y="66.08" width="7.43" height="7.43"/><rect class="cls-2" x="95.79" y="58.66" width="7.43" height="7.43"/><rect class="cls-2" x="95.79" y="51.23" width="7.43" height="7.43"/><rect class="cls-2" x="95.79" y="43.81" width="7.43" height="7.43"/><rect class="cls-2" x="95.79" y="36.38" width="7.43" height="7.43"/><rect x="95.79" y="28.96" width="7.43" height="7.43"/><rect class="cls-2" x="95.79" y="22.28" width="7.43" height="6.68"/><rect class="cls-2" x="95.79" y="14.85" width="7.43" height="7.43"/><rect class="cls-1" x="95.79" y="7.43" width="7.43" height="7.43"/><rect x="95.79" width="7.43" height="7.43"/><rect x="88.36" y="139.59" width="7.43" height="7.43"/><rect x="88.36" y="132.91" width="7.43" height="6.68"/><rect x="88.36" y="125.49" width="7.43" height="7.43"/><rect class="cls-3" x="88.36" y="118.06" width="7.43" height="7.43"/><rect class="cls-3" x="88.36" y="110.64" width="7.43" height="7.43"/><rect class="cls-3" x="88.36" y="103.21" width="7.43" height="7.43"/><rect class="cls-3" x="88.36" y="95.79" width="7.43" height="7.43"/><rect class="cls-3" x="88.36" y="88.36" width="7.43" height="7.43"/><rect class="cls-3" x="88.36" y="80.94" width="7.43" height="7.43"/><rect class="cls-3" x="88.36" y="73.51" width="7.43" height="7.43"/><rect class="cls-2" x="88.36" y="66.08" width="7.43" height="7.43"/><rect class="cls-2" x="88.36" y="58.66" width="7.43" height="7.43"/><rect class="cls-2" x="88.36" y="51.23" width="7.43" height="7.43"/><rect class="cls-2" x="88.36" y="43.81" width="7.43" height="7.43"/><rect class="cls-2" x="88.36" y="36.38" width="7.43" height="7.43"/><rect class="cls-2" x="88.36" y="28.96" width="7.43" height="7.43"/><rect class="cls-2" x="88.36" y="22.28" width="7.43" height="6.68"/><rect class="cls-2" x="88.36" y="14.85" width="7.43" height="7.43"/><rect class="cls-1" x="88.36" y="7.43" width="7.43" height="7.43"/><rect x="88.36" width="7.43" height="7.43"/><rect x="80.94" y="139.59" width="7.43" height="7.43"/><rect x="80.94" y="125.49" width="7.43" height="7.43"/><rect x="80.94" y="118.06" width="7.43" height="7.43"/><rect x="80.94" y="110.64" width="7.43" height="7.43"/><rect x="80.94" y="103.21" width="7.43" height="7.43"/><rect x="80.94" y="95.79" width="7.43" height="7.43"/><rect x="80.94" y="88.36" width="7.43" height="7.43"/><rect x="80.94" y="80.94" width="7.43" height="7.43"/><rect class="cls-3" x="80.94" y="73.51" width="7.43" height="7.43"/><rect class="cls-2" x="80.94" y="66.08" width="7.43" height="7.43"/><rect class="cls-2" x="80.94" y="58.66" width="7.43" height="7.43"/><rect class="cls-2" x="80.94" y="51.23" width="7.43" height="7.43"/><rect class="cls-2" x="80.94" y="43.81" width="7.43" height="7.43"/><rect class="cls-2" x="80.94" y="36.38" width="7.43" height="7.43"/><rect class="cls-2" x="80.94" y="28.96" width="7.43" height="7.43"/><rect x="80.94" y="22.28" width="7.43" height="6.68"/><rect class="cls-2" x="80.94" y="14.85" width="7.43" height="7.43"/><rect class="cls-1" x="80.94" y="7.43" width="7.43" height="7.43"/><rect x="80.94" width="7.43" height="7.43"/><rect x="73.51" y="147.02" width="7.43" height="7.43"/><rect x="73.51" y="139.59" width="7.43" height="7.43"/><rect x="73.51" y="118.06" width="7.43" height="7.43"/><rect x="73.51" y="110.64" width="7.43" height="7.43"/><rect x="73.51" y="80.94" width="7.43" height="7.43"/><rect x="73.51" y="73.51" width="7.43" height="7.43"/><rect class="cls-2" x="73.51" y="66.08" width="7.43" height="7.43"/><rect class="cls-2" x="73.51" y="58.66" width="7.43" height="7.43"/><rect class="cls-2" x="73.51" y="51.23" width="7.43" height="7.43"/><rect class="cls-2" x="73.51" y="43.81" width="7.43" height="7.43"/><rect class="cls-2" x="73.51" y="36.38" width="7.43" height="7.43"/><rect x="73.51" y="28.96" width="7.43" height="7.43"/><rect x="73.51" y="22.28" width="7.43" height="6.68"/><rect class="cls-2" x="73.51" y="14.85" width="7.43" height="7.43"/><rect class="cls-1" x="73.51" y="7.43" width="7.43" height="7.43"/><rect x="73.51" width="7.43" height="7.43"/><rect x="66.08" y="147.02" width="7.43" height="7.43"/><rect x="66.08" y="118.06" width="7.43" height="7.43"/><rect x="66.08" y="110.64" width="7.43" height="7.43"/><rect x="66.08" y="73.51" width="7.43" height="7.43"/><rect class="cls-2" x="66.08" y="66.08" width="7.43" height="7.43"/><rect x="66.08" y="58.66" width="7.43" height="7.43"/><rect x="66.08" y="51.23" width="7.43" height="7.43"/><rect class="cls-2" x="66.08" y="43.81" width="7.43" height="7.43"/><rect class="cls-2" x="66.08" y="36.38" width="7.43" height="7.43"/><rect class="cls-2" x="66.08" y="28.96" width="7.43" height="7.43"/><rect class="cls-2" x="66.08" y="22.28" width="7.43" height="6.68"/><rect class="cls-2" x="66.08" y="14.85" width="7.43" height="7.43"/><rect x="66.08" y="7.43" width="7.43" height="7.43"/><rect x="66.08" width="7.43" height="7.43"/><rect x="58.66" y="161.87" width="7.43" height="7.43"/><rect x="58.66" y="154.44" width="7.43" height="7.43"/><rect x="58.66" y="147.02" width="7.43" height="7.43"/><rect x="58.66" y="118.06" width="7.43" height="7.43"/><rect x="58.66" y="73.51" width="7.43" height="7.43"/><rect class="cls-2" x="58.66" y="66.08" width="7.43" height="7.43"/><rect x="58.66" y="58.66" width="7.43" height="7.43"/><rect x="58.66" y="43.81" width="7.43" height="7.43"/><rect class="cls-2" x="58.66" y="36.38" width="7.43" height="7.43"/><rect class="cls-2" x="58.66" y="28.96" width="7.43" height="7.43"/><rect class="cls-2" x="58.66" y="22.28" width="7.43" height="6.68"/><rect class="cls-2" x="58.66" y="14.85" width="7.43" height="7.43"/><rect x="58.66" y="7.43" width="7.43" height="7.43"/><rect x="58.66" width="7.43" height="7.43"/><rect x="51.23" y="154.44" width="7.43" height="7.43"/><rect x="51.23" y="147.02" width="7.43" height="7.43"/><rect x="51.23" y="118.06" width="7.43" height="7.43"/><rect x="51.23" y="73.51" width="7.43" height="7.43"/><rect class="cls-2" x="51.23" y="66.08" width="7.43" height="7.43"/><rect x="51.23" y="58.66" width="7.43" height="7.43"/><rect x="51.23" y="36.38" width="7.43" height="7.43"/><rect class="cls-2" x="51.23" y="28.96" width="7.43" height="7.43"/><rect class="cls-2" x="51.23" y="22.28" width="7.43" height="6.68"/><rect x="51.23" y="14.85" width="7.43" height="7.43"/><rect class="cls-2" x="51.23" y="7.43" width="7.43" height="7.43"/><rect x="51.23" width="7.43" height="7.43"/><rect x="43.81" y="161.87" width="7.43" height="7.43"/><rect x="43.81" y="154.44" width="7.43" height="7.43"/><rect x="43.81" y="125.49" width="7.43" height="7.43"/><rect x="43.81" y="118.06" width="7.43" height="7.43"/><rect x="43.81" y="73.51" width="7.43" height="7.43"/><rect class="cls-2" x="43.81" y="66.08" width="7.43" height="7.43"/><rect x="43.81" y="58.66" width="7.43" height="7.43"/><rect x="43.81" y="43.81" width="7.43" height="7.43"/><rect x="43.81" y="36.38" width="7.43" height="7.43"/><rect class="cls-2" x="43.81" y="28.96" width="7.43" height="7.43"/><rect class="cls-2" x="43.81" y="22.28" width="7.43" height="6.68"/><rect x="43.81" y="14.85" width="7.43" height="7.43"/><rect class="cls-1" x="43.81" y="7.43" width="7.43" height="7.43"/><rect x="43.81" width="7.43" height="7.43"/><rect x="36.38" y="139.59" width="7.43" height="7.43"/><rect x="36.38" y="132.91" width="7.43" height="6.68"/><rect x="36.38" y="125.49" width="7.43" height="7.43"/><rect x="36.38" y="118.06" width="7.43" height="7.43"/><rect x="36.38" y="73.51" width="7.43" height="7.43"/><rect class="cls-2" x="36.38" y="66.08" width="7.43" height="7.43"/><rect x="36.38" y="58.66" width="7.43" height="7.43"/><rect x="36.38" y="51.23" width="7.43" height="7.43"/><rect x="36.38" y="36.38" width="7.43" height="7.43"/><rect class="cls-2" x="36.38" y="28.96" width="7.43" height="7.43"/><rect class="cls-2" x="36.38" y="22.28" width="7.43" height="6.68"/><rect x="36.38" y="14.85" width="7.43" height="7.43"/><rect x="36.38" y="7.43" width="7.43" height="7.43"/><rect x="36.38" width="7.43" height="7.43"/><rect x="29.7" y="132.91" width="6.68" height="6.68"/><rect x="29.7" y="125.49" width="6.68" height="7.43"/><rect x="29.7" y="73.51" width="6.68" height="7.43"/><rect class="cls-2" x="29.7" y="66.08" width="6.68" height="7.43"/><rect x="29.7" y="58.66" width="6.68" height="7.43"/><rect x="29.7" y="36.38" width="6.68" height="7.43"/><rect class="cls-2" x="29.7" y="28.96" width="6.68" height="7.43"/><rect class="cls-2" x="29.7" y="22.28" width="6.68" height="6.68"/><rect x="29.7" y="14.85" width="6.68" height="7.43"/><rect x="22.28" y="73.51" width="7.43" height="7.43"/><rect class="cls-2" x="22.28" y="66.08" width="7.43" height="7.43"/><rect x="22.28" y="58.66" width="7.43" height="7.43"/><rect x="22.28" y="43.81" width="7.43" height="7.43"/><rect x="22.28" y="36.38" width="7.43" height="7.43"/><rect class="cls-2" x="22.28" y="28.96" width="7.43" height="7.43"/><rect class="cls-1" x="22.28" y="22.28" width="7.43" height="6.68"/><rect x="22.28" y="14.85" width="7.43" height="7.43"/><rect x="14.85" y="73.51" width="7.43" height="7.43"/><rect class="cls-2" x="14.85" y="66.08" width="7.43" height="7.43"/><rect x="14.85" y="58.66" width="7.43" height="7.43"/><rect x="14.85" y="51.23" width="7.43" height="7.43"/><rect x="14.85" y="36.38" width="7.43" height="7.43"/><rect class="cls-2" x="14.85" y="28.96" width="7.43" height="7.43"/><rect class="cls-1" x="14.85" y="22.28" width="7.43" height="6.68"/><rect x="14.85" y="14.85" width="7.43" height="7.43"/><rect x="7.43" y="66.08" width="7.43" height="7.43"/><rect x="7.43" y="58.66" width="7.43" height="7.43"/><rect x="7.43" y="43.81" width="7.43" height="7.43"/><rect x="7.43" y="36.38" width="7.43" height="7.43"/><rect class="cls-1" x="7.43" y="28.96" width="7.43" height="7.43"/><rect x="7.43" y="22.28" width="7.43" height="6.68"/><rect x="7.43" y="14.85" width="7.43" height="7.43"/><rect y="36.38" width="7.43" height="7.43"/><rect y="28.96" width="7.43" height="7.43"/></g></g></svg>