<svg xmlns="http://www.w3.org/2000/svg" viewBox="0 0 110.64 125.49"><defs><style>.cls-1{fill:#ffbf00;}.cls-2{fill:red;}.cls-3{fill:#616161;}.cls-4{fill:#383838;}.cls-5{fill:#999;}.cls-6{fill:#fff;}.cls-7{fill:#bfbfbf;}</style></defs><g id="Layer_2" data-name="Layer 2"><g id="ëÎÓÈ_1" data-name="ëÎÓÈ 1"><rect x="103.21" y="51.98" width="7.43" height="7.43"/><rect x="103.21" y="29.7" width="7.43" height="7.43"/><rect x="103.21" width="7.43" height="7.43"/><rect x="95.79" y="44.55" width="7.43" height="7.43"/><rect class="cls-1" x="95.79" y="29.7" width="7.43" height="7.43"/><rect class="cls-1" x="95.79" y="22.28" width="7.43" height="7.43"/><rect class="cls-1" x="95.79" y="14.85" width="7.43" height="7.43"/><rect x="95.79" y="7.43" width="7.43" height="7.43"/><rect class="cls-1" x="88.36" y="37.13" width="7.43" height="7.43"/><rect class="cls-2" x="88.36" y="29.7" width="7.43" height="7.43"/><rect class="cls-2" x="88.36" y="22.28" width="7.43" height="7.43"/><rect class="cls-1" x="88.36" y="14.85" width="7.43" height="7.43"/><rect class="cls-1" x="80.94" y="44.55" width="7.43" height="7.43"/><rect class="cls-2" x="80.94" y="37.13" width="7.43" height="7.43"/><rect x="80.94" y="29.7" width="7.43" height="7.43"/><rect class="cls-2" x="80.94" y="22.28" width="7.43" height="7.43"/><rect class="cls-1" x="80.94" y="14.85" width="7.43" height="7.43"/><rect x="73.51" y="96.53" width="7.43" height="7.43"/><rect x="73.51" y="89.1" width="7.43" height="7.43"/><rect x="73.51" y="81.68" width="7.43" height="7.43"/><rect x="73.51" y="74.25" width="7.43" height="7.43"/><rect x="73.51" y="66.83" width="7.43" height="7.43"/><rect x="73.51" y="51.98" width="7.43" height="7.43"/><rect x="73.51" y="37.13" width="7.43" height="7.43"/><rect class="cls-2" x="73.51" y="29.7" width="7.43" height="7.43"/><rect class="cls-2" x="73.51" y="22.28" width="7.43" height="7.43"/><rect x="66.08" y="103.95" width="7.43" height="6.68"/><rect class="cls-3" x="66.08" y="96.53" width="7.43" height="7.43"/><rect class="cls-4" x="66.08" y="89.1" width="7.43" height="7.43"/><rect class="cls-4" x="66.08" y="81.68" width="7.43" height="7.43"/><rect class="cls-4" x="66.08" y="74.25" width="7.43" height="7.43"/><rect class="cls-4" x="66.08" y="66.83" width="7.43" height="7.43"/><rect x="66.08" y="59.4" width="7.43" height="7.43"/><rect class="cls-3" x="66.08" y="51.98" width="7.43" height="7.43"/><rect x="66.08" y="44.55" width="7.43" height="7.43"/><rect class="cls-1" x="66.08" y="29.7" width="7.43" height="7.43"/><rect class="cls-1" x="66.08" y="14.85" width="7.43" height="7.43"/><rect x="58.66" y="110.64" width="7.43" height="7.43"/><rect class="cls-3" x="58.66" y="103.95" width="7.43" height="6.68"/><rect class="cls-4" x="58.66" y="96.53" width="7.43" height="7.43"/><rect class="cls-4" x="58.66" y="89.1" width="7.43" height="7.43"/><rect class="cls-4" x="58.66" y="81.68" width="7.43" height="7.43"/><rect class="cls-4" x="58.66" y="74.25" width="7.43" height="7.43"/><rect class="cls-4" x="58.66" y="66.83" width="7.43" height="7.43"/><rect class="cls-4" x="58.66" y="59.4" width="7.43" height="7.43"/><rect x="58.66" y="51.98" width="7.43" height="7.43"/><rect class="cls-3" x="58.66" y="44.55" width="7.43" height="7.43"/><rect x="58.66" y="37.13" width="7.43" height="7.43"/><rect x="58.66" y="14.85" width="7.43" height="7.43"/><rect x="51.23" y="118.06" width="7.43" height="7.43"/><rect class="cls-3" x="51.23" y="110.64" width="7.43" height="7.43"/><rect class="cls-4" x="51.23" y="103.95" width="7.43" height="6.68"/><rect class="cls-4" x="51.23" y="96.53" width="7.43" height="7.43"/><rect class="cls-4" x="51.23" y="89.1" width="7.43" height="7.43"/><rect class="cls-4" x="51.23" y="81.68" width="7.43" height="7.43"/><rect class="cls-3" x="51.23" y="74.25" width="7.43" height="7.43"/><rect class="cls-3" x="51.23" y="66.83" width="7.43" height="7.43"/><rect class="cls-3" x="51.23" y="59.4" width="7.43" height="7.43"/><rect class="cls-3" x="51.23" y="51.98" width="7.43" height="7.43"/><rect x="51.23" y="44.55" width="7.43" height="7.43"/><rect x="51.23" y="7.43" width="7.43" height="7.43"/><rect x="44.55" y="118.06" width="6.68" height="7.43"/><rect class="cls-3" x="44.55" y="110.64" width="6.68" height="7.43"/><rect class="cls-4" x="44.55" y="103.95" width="6.68" height="6.68"/><rect class="cls-4" x="44.55" y="96.53" width="6.68" height="7.43"/><rect class="cls-4" x="44.55" y="89.1" width="6.68" height="7.43"/><rect class="cls-3" x="44.55" y="81.68" width="6.68" height="7.43"/><rect class="cls-3" x="44.55" y="74.25" width="6.68" height="7.43"/><rect class="cls-3" x="44.55" y="66.83" width="6.68" height="7.43"/><rect class="cls-3" x="44.55" y="59.4" width="6.68" height="7.43"/><rect class="cls-3" x="44.55" y="51.98" width="6.68" height="7.43"/><rect x="44.55" y="44.55" width="6.68" height="7.43"/><rect x="37.13" y="118.06" width="7.43" height="7.43"/><rect class="cls-3" x="37.13" y="110.64" width="7.43" height="7.43"/><rect class="cls-4" x="37.13" y="103.95" width="7.43" height="6.68"/><rect class="cls-4" x="37.13" y="96.53" width="7.43" height="7.43"/><rect class="cls-4" x="37.13" y="89.1" width="7.43" height="7.43"/><rect class="cls-3" x="37.13" y="81.68" width="7.43" height="7.43"/><rect class="cls-3" x="37.13" y="74.25" width="7.43" height="7.43"/><rect class="cls-5" x="37.13" y="66.83" width="7.43" height="7.43"/><rect class="cls-5" x="37.13" y="59.4" width="7.43" height="7.43"/><rect class="cls-3" x="37.13" y="51.98" width="7.43" height="7.43"/><rect x="37.13" y="44.55" width="7.43" height="7.43"/><rect x="29.7" y="118.06" width="7.43" height="7.43"/><rect class="cls-4" x="29.7" y="110.64" width="7.43" height="7.43"/><rect class="cls-4" x="29.7" y="103.95" width="7.43" height="6.68"/><rect class="cls-4" x="29.7" y="96.53" width="7.43" height="7.43"/><rect class="cls-3" x="29.7" y="89.1" width="7.43" height="7.43"/><rect class="cls-3" x="29.7" y="81.68" width="7.43" height="7.43"/><rect class="cls-5" x="29.7" y="74.25" width="7.43" height="7.43"/><rect class="cls-6" x="29.7" y="66.83" width="7.43" height="7.43"/><rect class="cls-7" x="29.7" y="59.4" width="7.43" height="7.43"/><rect class="cls-3" x="29.7" y="51.98" width="7.43" height="7.43"/><rect x="29.7" y="44.55" width="7.43" height="7.43"/><rect x="22.28" y="118.06" width="7.43" height="7.43"/><rect class="cls-4" x="22.28" y="110.64" width="7.43" height="7.43"/><rect class="cls-4" x="22.28" y="103.95" width="7.43" height="6.68"/><rect class="cls-4" x="22.28" y="96.53" width="7.43" height="7.43"/><rect class="cls-3" x="22.28" y="89.1" width="7.43" height="7.43"/><rect class="cls-3" x="22.28" y="81.68" width="7.43" height="7.43"/><rect class="cls-5" x="22.28" y="74.25" width="7.43" height="7.43"/><rect class="cls-7" x="22.28" y="66.83" width="7.43" height="7.43"/><rect class="cls-5" x="22.28" y="59.4" width="7.43" height="7.43"/><rect class="cls-3" x="22.28" y="51.98" width="7.43" height="7.43"/><rect x="22.28" y="44.55" width="7.43" height="7.43"/><rect x="14.85" y="110.64" width="7.43" height="7.43"/><rect class="cls-4" x="14.85" y="103.95" width="7.43" height="6.68"/><rect class="cls-4" x="14.85" y="96.53" width="7.43" height="7.43"/><rect class="cls-4" x="14.85" y="89.1" width="7.43" height="7.43"/><rect class="cls-3" x="14.85" y="81.68" width="7.43" height="7.43"/><rect class="cls-3" x="14.85" y="74.25" width="7.43" height="7.43"/><rect class="cls-3" x="14.85" y="66.83" width="7.43" height="7.43"/><rect class="cls-3" x="14.85" y="59.4" width="7.43" height="7.43"/><rect x="14.85" y="51.98" width="7.43" height="7.43"/><rect x="7.43" y="103.95" width="7.43" height="6.68"/><rect class="cls-4" x="7.43" y="96.53" width="7.43" height="7.43"/><rect class="cls-4" x="7.43" y="89.1" width="7.43" height="7.43"/><rect class="cls-3" x="7.43" y="81.68" width="7.43" height="7.43"/><rect class="cls-3" x="7.43" y="74.25" width="7.43" height="7.43"/><rect class="cls-3" x="7.43" y="66.83" width="7.43" height="7.43"/><rect x="7.43" y="59.4" width="7.43" height="7.43"/><rect y="96.53" width="7.43" height="7.43"/><rect y="89.1" width="7.43" height="7.43"/><rect y="81.68" width="7.43" height="7.43"/><rect y="74.25" width="7.43" height="7.43"/><rect y="66.83" width="7.43" height="7.43"/></g></g></svg>